<svg xmlns="http://www.w3.org/2000/svg" width="900" height="470" viewBox="0 0 900 470">
<g transform="translate(27.95 -187.05) scale(5.590)" stroke-linecap="square" stroke-linejoin="miter">
<g stroke="#009caf" stroke-width="1.1" fill="none">
<line x1="136" y1="80" x2="136" y2="87"/>
<line x1="136" y1="68" x2="136" y2="64"/>
<line x1="136" y1="64" x2="148" y2="64"/>
<line x1="148" y1="64" x2="148" y2="83"/>
<line x1="148" y1="83" x2="136" y2="83"/>
<line x1="111" y1="80" x2="111" y2="86"/>
<line x1="111" y1="86" x2="137" y2="86"/>
<line x1="86" y1="80" x2="86" y2="86"/>
<line x1="86" y1="86" x2="112" y2="86"/>
<line x1="61" y1="80" x2="61" y2="86"/>
<line x1="61" y1="86" x2="87" y2="86"/>
<line x1="36" y1="80" x2="36" y2="86"/>
<line x1="36" y1="86" x2="62" y2="86"/>
<line x1="11" y1="80" x2="11" y2="86"/>
<line x1="11" y1="86" x2="37" y2="86"/>
</g>
<rect x="128" y="68" width="16" height="12" rx="1.5" fill="#0b0d0e" stroke="#009caf" stroke-width="0.9"/>
<text x="136" y="77" font-family="Titillium Web, Helvetica, Arial, sans-serif" font-size="9" font-weight="700" text-anchor="middle" fill="#d8dee2">6</text>
<rect x="103" y="68" width="16" height="12" rx="1.5" fill="#0b0d0e" stroke="#009caf" stroke-width="0.9"/>
<text x="111" y="77" font-family="Titillium Web, Helvetica, Arial, sans-serif" font-size="9" font-weight="700" text-anchor="middle" fill="#d8dee2">5</text>
<rect x="78" y="68" width="16" height="12" rx="1.5" fill="#0b0d0e" stroke="#009caf" stroke-width="0.9"/>
<text x="86" y="77" font-family="Titillium Web, Helvetica, Arial, sans-serif" font-size="9" font-weight="700" text-anchor="middle" fill="#d8dee2">4</text>
<rect x="53" y="68" width="16" height="12" rx="1.5" fill="#0b0d0e" stroke="#009caf" stroke-width="0.9"/>
<text x="61" y="77" font-family="Titillium Web, Helvetica, Arial, sans-serif" font-size="9" font-weight="700" text-anchor="middle" fill="#d8dee2">3</text>
<rect x="28" y="68" width="16" height="12" rx="1.5" fill="#0b0d0e" stroke="#009caf" stroke-width="0.9"/>
<text x="36" y="77" font-family="Titillium Web, Helvetica, Arial, sans-serif" font-size="9" font-weight="700" text-anchor="middle" fill="#d8dee2">2</text>
<rect x="3" y="68" width="16" height="12" rx="1.5" fill="#0b0d0e" stroke="#009caf" stroke-width="0.9"/>
<text x="11" y="77" font-family="Titillium Web, Helvetica, Arial, sans-serif" font-size="9" font-weight="700" text-anchor="middle" fill="#d8dee2">1</text>
</g></svg>
